<svg width="150" height="43" viewBox="0 0 150 43" fill="none" xmlns="http://www.w3.org/2000/svg">
<g filter="url(#filter0_d_206_33)">
<path d="M112.736 20.633C113.711 20.633 114.493 20.905 115.082 21.449C115.671 21.993 115.966 22.7637 115.966 23.761C115.966 24.135 115.926 24.5147 115.847 24.9L114.844 30H111.614L112.566 25.24C112.611 25.0247 112.634 24.8093 112.634 24.594C112.634 24.186 112.532 23.88 112.328 23.676C112.135 23.472 111.852 23.37 111.478 23.37C110.447 23.37 109.795 24.033 109.523 25.359L108.588 30H105.358L106.327 25.24C106.372 25.0473 106.395 24.8377 106.395 24.611C106.395 24.203 106.293 23.897 106.089 23.693C105.896 23.4777 105.613 23.37 105.239 23.37C104.196 23.37 103.539 24.0443 103.267 25.393L102.349 30H99.1189L100.955 20.786H104.015L103.828 21.721C104.587 20.9957 105.505 20.633 106.582 20.633C107.194 20.633 107.744 20.7633 108.231 21.024C108.718 21.2733 109.092 21.6417 109.353 22.129C109.784 21.6417 110.282 21.2733 110.849 21.024C111.427 20.7633 112.056 20.633 112.736 20.633ZM128.592 20.786L126.756 30H123.696L123.883 29.133C123.147 29.813 122.257 30.153 121.214 30.153C120.534 30.153 119.894 29.9887 119.293 29.66C118.704 29.32 118.228 28.8327 117.865 28.198C117.503 27.5633 117.321 26.8153 117.321 25.954C117.321 24.9567 117.542 24.0557 117.984 23.251C118.438 22.435 119.044 21.7947 119.803 21.33C120.574 20.8653 121.413 20.633 122.319 20.633C123.657 20.633 124.597 21.0523 125.141 21.891L125.362 20.786H128.592ZM122.336 27.552C122.982 27.552 123.509 27.314 123.917 26.838C124.325 26.362 124.529 25.7443 124.529 24.985C124.529 24.441 124.371 24.0103 124.053 23.693C123.747 23.3757 123.322 23.217 122.778 23.217C122.132 23.217 121.605 23.455 121.197 23.931C120.789 24.407 120.585 25.0303 120.585 25.801C120.585 26.345 120.738 26.7757 121.044 27.093C121.362 27.399 121.792 27.552 122.336 27.552ZM133.528 21.806C134.298 21.024 135.409 20.633 136.86 20.633L136.299 23.54C136.015 23.506 135.772 23.489 135.568 23.489C134.842 23.489 134.259 23.6647 133.817 24.016C133.386 24.356 133.097 24.9 132.95 25.648L132.066 30H128.836L130.672 20.786H133.732L133.528 21.806ZM140.906 26.566C140.883 26.7247 140.872 26.8267 140.872 26.872C140.872 27.3933 141.155 27.654 141.722 27.654C142.028 27.654 142.351 27.5633 142.691 27.382L143.099 29.609C142.464 29.9717 141.665 30.153 140.702 30.153C139.75 30.153 138.99 29.915 138.424 29.439C137.868 28.963 137.591 28.3 137.591 27.45C137.591 27.1213 137.619 26.8323 137.676 26.583L138.288 23.54H136.928L137.421 21.126H138.764L139.24 18.729H142.47L141.994 21.126H144.085L143.609 23.54H141.518L140.906 26.566Z" fill="white"/>
<path d="M115.082 21.449L115.218 21.302L115.218 21.302L115.082 21.449ZM115.847 24.9L115.651 24.8597L115.651 24.8614L115.847 24.9ZM114.844 30V30.2H115.008L115.04 30.0386L114.844 30ZM111.614 30L111.418 29.9608L111.37 30.2H111.614V30ZM112.566 25.24L112.37 25.1988L112.37 25.2008L112.566 25.24ZM112.328 23.676L112.182 23.8134L112.186 23.8174L112.328 23.676ZM109.523 25.359L109.327 25.3188L109.327 25.3195L109.523 25.359ZM108.588 30V30.2H108.752L108.784 30.0395L108.588 30ZM105.358 30L105.162 29.9601L105.113 30.2H105.358V30ZM106.327 25.24L106.132 25.1942L106.131 25.2001L106.327 25.24ZM106.089 23.693L105.94 23.8266L105.947 23.8344L106.089 23.693ZM103.267 25.393L103.071 25.3535L103.071 25.3539L103.267 25.393ZM102.349 30V30.2H102.513L102.545 30.0391L102.349 30ZM99.1189 30L98.9227 29.9609L98.8751 30.2H99.1189V30ZM100.955 20.786V20.586H100.791L100.759 20.7469L100.955 20.786ZM104.015 20.786L104.211 20.8252L104.259 20.586H104.015V20.786ZM103.828 21.721L103.632 21.6818L103.507 22.3037L103.966 21.8656L103.828 21.721ZM108.231 21.024L108.137 21.2004L108.14 21.202L108.231 21.024ZM109.353 22.129L109.177 22.2233L109.312 22.477L109.503 22.2614L109.353 22.129ZM110.849 21.024L110.929 21.2071L110.931 21.2063L110.849 21.024ZM112.736 20.833C113.672 20.833 114.401 21.0931 114.946 21.596L115.218 21.302C114.584 20.7169 113.749 20.433 112.736 20.433V20.833ZM114.946 21.596C115.485 22.0932 115.766 22.8049 115.766 23.761H116.166C116.166 22.7224 115.857 21.8928 115.218 21.302L114.946 21.596ZM115.766 23.761C115.766 24.1208 115.728 24.4869 115.651 24.8597L116.043 24.9403C116.125 24.5424 116.166 24.1492 116.166 23.761H115.766ZM115.651 24.8614L114.648 29.9614L115.04 30.0386L116.043 24.9386L115.651 24.8614ZM114.844 29.8H111.614V30.2H114.844V29.8ZM111.81 30.0392L112.762 25.2792L112.37 25.2008L111.418 29.9608L111.81 30.0392ZM112.762 25.2812C112.81 25.0526 112.834 24.8235 112.834 24.594H112.434C112.434 24.7952 112.413 24.9967 112.37 25.1988L112.762 25.2812ZM112.834 24.594C112.834 24.1552 112.724 23.7893 112.469 23.5346L112.186 23.8174C112.34 23.9707 112.434 24.2168 112.434 24.594H112.834ZM112.473 23.5387C112.231 23.2826 111.888 23.17 111.478 23.17V23.57C111.816 23.57 112.039 23.6614 112.182 23.8133L112.473 23.5387ZM111.478 23.17C110.915 23.17 110.441 23.3529 110.073 23.7271C109.71 24.0959 109.467 24.6343 109.327 25.3188L109.719 25.3992C109.85 24.7577 110.069 24.3016 110.358 24.0074C110.642 23.7186 111.009 23.57 111.478 23.57V23.17ZM109.327 25.3195L108.392 29.9605L108.784 30.0395L109.719 25.3985L109.327 25.3195ZM108.588 29.8H105.358V30.2H108.588V29.8ZM105.554 30.0399L106.523 25.2799L106.131 25.2001L105.162 29.9601L105.554 30.0399ZM106.522 25.2858C106.571 25.0761 106.595 24.8509 106.595 24.611H106.195C106.195 24.8244 106.174 25.0185 106.132 25.1942L106.522 25.2858ZM106.595 24.611C106.595 24.1722 106.485 23.8063 106.23 23.5516L105.947 23.8344C106.101 23.9877 106.195 24.2338 106.195 24.611H106.595ZM106.238 23.5596C105.997 23.2902 105.652 23.17 105.239 23.17V23.57C105.574 23.57 105.796 23.6651 105.94 23.8264L106.238 23.5596ZM105.239 23.17C104.67 23.17 104.191 23.356 103.821 23.7361C103.455 24.1108 103.211 24.6578 103.071 25.3535L103.463 25.4325C103.595 24.7795 103.815 24.315 104.107 24.0154C104.394 23.7211 104.765 23.57 105.239 23.57V23.17ZM103.071 25.3539L102.153 29.9609L102.545 30.0391L103.463 25.4321L103.071 25.3539ZM102.349 29.8H99.1189V30.2H102.349V29.8ZM99.315 30.0391L101.151 20.8251L100.759 20.7469L98.9227 29.9609L99.315 30.0391ZM100.955 20.986H104.015V20.586H100.955V20.986ZM103.819 20.7468L103.632 21.6818L104.024 21.7602L104.211 20.8252L103.819 20.7468ZM103.966 21.8656C104.687 21.1768 105.555 20.833 106.582 20.833V20.433C105.455 20.433 104.487 20.8145 103.69 21.5764L103.966 21.8656ZM106.582 20.833C107.165 20.833 107.681 20.9568 108.137 21.2004L108.325 20.8476C107.806 20.5698 107.223 20.433 106.582 20.433V20.833ZM108.14 21.202C108.59 21.4326 108.935 21.7716 109.177 22.2233L109.529 22.0347C109.25 21.5118 108.846 21.114 108.322 20.846L108.14 21.202ZM109.503 22.2614C109.915 21.7947 110.391 21.4441 110.929 21.2071L110.768 20.8409C110.174 21.1025 109.652 21.4887 109.203 21.9966L109.503 22.2614ZM110.931 21.2063C111.481 20.9581 112.082 20.833 112.736 20.833V20.433C112.03 20.433 111.372 20.5685 110.767 20.8417L110.931 21.2063ZM128.592 20.786L128.789 20.8251L128.836 20.586H128.592V20.786ZM126.756 30V30.2H126.92L126.953 30.0391L126.756 30ZM123.696 30L123.501 29.9578L123.449 30.2H123.696V30ZM123.883 29.133L124.079 29.1752L124.212 28.5573L123.748 28.986L123.883 29.133ZM119.293 29.66L119.193 29.8333L119.197 29.8355L119.293 29.66ZM117.865 28.198L118.039 28.0988L118.039 28.0988L117.865 28.198ZM117.984 23.251L117.81 23.1539L117.809 23.1547L117.984 23.251ZM119.803 21.33L119.7 21.1587L119.699 21.1594L119.803 21.33ZM125.141 21.891L124.974 21.9998L125.241 22.4122L125.337 21.9302L125.141 21.891ZM125.362 20.786V20.586H125.198L125.166 20.7468L125.362 20.786ZM123.917 26.838L124.069 26.9682L124.069 26.9682L123.917 26.838ZM124.053 23.693L123.909 23.8318L123.912 23.8344L124.053 23.693ZM121.197 23.931L121.349 24.0612L121.349 24.0612L121.197 23.931ZM121.044 27.093L120.9 27.2319L120.906 27.237L121.044 27.093ZM128.396 20.7469L126.56 29.9609L126.953 30.0391L128.789 20.8251L128.396 20.7469ZM126.756 29.8H123.696V30.2H126.756V29.8ZM123.892 30.0422L124.079 29.1752L123.688 29.0908L123.501 29.9578L123.892 30.0422ZM123.748 28.986C123.05 29.6305 122.209 29.953 121.214 29.953V30.353C122.305 30.353 123.244 29.9955 124.019 29.28L123.748 28.986ZM121.214 29.953C120.568 29.953 119.961 29.7972 119.389 29.4845L119.197 29.8355C119.827 30.1801 120.501 30.353 121.214 30.353V29.953ZM119.393 29.4868C118.837 29.1658 118.385 28.705 118.039 28.0988L117.692 28.2972C118.071 28.9603 118.571 29.4742 119.193 29.8332L119.393 29.4868ZM118.039 28.0988C117.696 27.4993 117.521 26.7868 117.521 25.954H117.121C117.121 26.8439 117.309 27.6273 117.692 28.2972L118.039 28.0988ZM117.521 25.954C117.521 24.9873 117.735 24.1199 118.16 23.3473L117.809 23.1547C117.349 23.9914 117.121 24.926 117.121 25.954H117.521ZM118.159 23.3481C118.597 22.5608 119.179 21.9464 119.908 21.5006L119.699 21.1594C118.909 21.643 118.279 22.3092 117.81 23.1539L118.159 23.3481ZM119.907 21.5013C120.646 21.0556 121.449 20.833 122.319 20.833V20.433C121.377 20.433 120.502 20.6751 119.7 21.1587L119.907 21.5013ZM122.319 20.833C123.614 20.833 124.478 21.2365 124.974 21.9998L125.309 21.7822C124.716 20.8682 123.699 20.433 122.319 20.433V20.833ZM125.337 21.9302L125.558 20.8252L125.166 20.7468L124.945 21.8518L125.337 21.9302ZM125.362 20.986H128.592V20.586H125.362V20.986ZM122.336 27.752C123.039 27.752 123.622 27.49 124.069 26.9682L123.766 26.7078C123.397 27.138 122.926 27.352 122.336 27.352V27.752ZM124.069 26.9682C124.515 26.4487 124.729 25.7816 124.729 24.985H124.329C124.329 25.7071 124.136 26.2753 123.766 26.7078L124.069 26.9682ZM124.729 24.985C124.729 24.4 124.557 23.9141 124.195 23.5516L123.912 23.8344C124.184 24.1065 124.329 24.482 124.329 24.985H124.729ZM124.197 23.5542C123.845 23.189 123.363 23.017 122.778 23.017V23.417C123.282 23.417 123.65 23.5624 123.909 23.8318L124.197 23.5542ZM122.778 23.017C122.076 23.017 121.493 23.279 121.046 23.8008L121.349 24.0612C121.718 23.631 122.189 23.417 122.778 23.417V23.017ZM121.046 23.8008C120.6 24.3209 120.385 24.994 120.385 25.801H120.785C120.785 25.0667 120.979 24.4931 121.349 24.0612L121.046 23.8008ZM120.385 25.801C120.385 26.384 120.55 26.8689 120.9 27.2318L121.188 26.9542C120.926 26.6824 120.785 26.306 120.785 25.801H120.385ZM120.906 27.237C121.268 27.5869 121.753 27.752 122.336 27.752V27.352C121.831 27.352 121.455 27.2111 121.183 26.949L120.906 27.237ZM133.528 21.806L133.332 21.7668L133.2 22.4231L133.67 21.9464L133.528 21.806ZM136.86 20.633L137.056 20.6709L137.102 20.433H136.86V20.633ZM136.299 23.54L136.275 23.7386L136.46 23.7608L136.495 23.5779L136.299 23.54ZM133.817 24.016L133.941 24.173L133.941 24.1726L133.817 24.016ZM132.95 25.648L133.146 25.6878L133.146 25.6867L132.95 25.648ZM132.066 30V30.2H132.229L132.262 30.0398L132.066 30ZM128.836 30L128.64 29.9609L128.592 30.2H128.836V30ZM130.672 20.786V20.586H130.508L130.476 20.7469L130.672 20.786ZM133.732 20.786L133.928 20.8252L133.976 20.586H133.732V20.786ZM133.67 21.9464C134.392 21.2136 135.445 20.833 136.86 20.833V20.433C135.373 20.433 134.204 20.8344 133.385 21.6656L133.67 21.9464ZM136.663 20.5951L136.102 23.5021L136.495 23.5779L137.056 20.6709L136.663 20.5951ZM136.323 23.3414C136.034 23.3068 135.782 23.289 135.568 23.289V23.689C135.761 23.689 135.997 23.7052 136.275 23.7386L136.323 23.3414ZM135.568 23.289C134.81 23.289 134.179 23.4728 133.692 23.8594L133.941 24.1726C134.339 23.8565 134.875 23.689 135.568 23.689V23.289ZM133.693 23.859C133.212 24.2383 132.906 24.8327 132.753 25.6093L133.146 25.6867C133.288 24.9673 133.56 24.4737 133.941 24.173L133.693 23.859ZM132.754 25.6082L131.87 29.9602L132.262 30.0398L133.146 25.6878L132.754 25.6082ZM132.066 29.8H128.836V30.2H132.066V29.8ZM129.032 30.0391L130.868 20.8251L130.476 20.7469L128.64 29.9609L129.032 30.0391ZM130.672 20.986H133.732V20.586H130.672V20.986ZM133.536 20.7468L133.332 21.7668L133.724 21.8452L133.928 20.8252L133.536 20.7468ZM140.906 26.566L140.709 26.5263L140.708 26.5377L140.906 26.566ZM142.691 27.382L142.888 27.346L142.838 27.0767L142.597 27.2055L142.691 27.382ZM143.099 29.609L143.198 29.7826L143.321 29.7123L143.296 29.573L143.099 29.609ZM138.424 29.439L138.294 29.5909L138.295 29.5921L138.424 29.439ZM137.676 26.583L137.871 26.6273L137.872 26.6224L137.676 26.583ZM138.288 23.54L138.484 23.5794L138.532 23.34H138.288V23.54ZM136.928 23.54L136.732 23.5L136.683 23.74H136.928V23.54ZM137.421 21.126V20.926H137.258L137.225 21.086L137.421 21.126ZM138.764 21.126V21.326H138.928L138.96 21.165L138.764 21.126ZM139.24 18.729V18.529H139.076L139.044 18.69L139.24 18.729ZM142.47 18.729L142.666 18.768L142.713 18.529H142.47V18.729ZM141.994 21.126L141.798 21.087L141.75 21.326H141.994V21.126ZM144.085 21.126L144.281 21.1647L144.328 20.926H144.085V21.126ZM143.609 23.54V23.74H143.773L143.805 23.5787L143.609 23.54ZM141.518 23.54V23.34H141.354L141.322 23.5004L141.518 23.54ZM140.708 26.5377C140.686 26.6923 140.672 26.8096 140.672 26.872H141.072C141.072 26.8438 141.081 26.757 141.104 26.5943L140.708 26.5377ZM140.672 26.872C140.672 27.168 140.753 27.4255 140.949 27.6057C141.142 27.783 141.412 27.854 141.722 27.854V27.454C141.465 27.454 141.31 27.3947 141.22 27.3113C141.132 27.2309 141.072 27.0974 141.072 26.872H140.672ZM141.722 27.854C142.068 27.854 142.423 27.7513 142.785 27.5585L142.597 27.2055C142.278 27.3753 141.988 27.454 141.722 27.454V27.854ZM142.494 27.418L142.902 29.645L143.296 29.573L142.888 27.346L142.494 27.418ZM143 29.4354C142.403 29.7761 141.641 29.953 140.702 29.953V30.353C141.689 30.353 142.525 30.1672 143.198 29.7826L143 29.4354ZM140.702 29.953C139.783 29.953 139.074 29.7238 138.552 29.2859L138.295 29.5921C138.907 30.1062 139.716 30.353 140.702 30.353V29.953ZM138.554 29.2871C138.05 28.8555 137.791 28.2521 137.791 27.45H137.391C137.391 28.3479 137.687 29.0705 138.294 29.5909L138.554 29.2871ZM137.791 27.45C137.791 27.1323 137.818 26.8587 137.871 26.6273L137.481 26.5387C137.42 26.806 137.391 27.1104 137.391 27.45H137.791ZM137.872 26.6224L138.484 23.5794L138.092 23.5006L137.48 26.5436L137.872 26.6224ZM138.288 23.34H136.928V23.74H138.288V23.34ZM137.124 23.58L137.617 21.166L137.225 21.086L136.732 23.5L137.124 23.58ZM137.421 21.326H138.764V20.926H137.421V21.326ZM138.96 21.165L139.436 18.768L139.044 18.69L138.568 21.087L138.96 21.165ZM139.24 18.929H142.47V18.529H139.24V18.929ZM142.274 18.69L141.798 21.087L142.19 21.165L142.666 18.768L142.274 18.69ZM141.994 21.326H144.085V20.926H141.994V21.326ZM143.889 21.0873L143.413 23.5013L143.805 23.5787L144.281 21.1647L143.889 21.0873ZM143.609 23.34H141.518V23.74H143.609V23.34ZM141.322 23.5004L140.71 26.5264L141.102 26.6056L141.714 23.5796L141.322 23.5004Z" fill="#095CA8"/>
</g>
<path d="M62.077 18.1H66.888C68.078 18.1 69.1093 18.304 69.982 18.712C70.8547 19.1087 71.5177 19.6753 71.971 20.412C72.4357 21.1487 72.668 22.0157 72.668 23.013C72.668 24.407 72.3563 25.631 71.733 26.685C71.121 27.739 70.254 28.555 69.132 29.133C68.01 29.711 66.718 30 65.256 30H59.697L62.077 18.1ZM65.324 28.13C66.3667 28.13 67.2733 27.9147 68.044 27.484C68.8147 27.0533 69.404 26.464 69.812 25.716C70.2313 24.9567 70.441 24.101 70.441 23.149C70.441 22.1517 70.118 21.3753 69.472 20.82C68.826 20.2533 67.8853 19.97 66.65 19.97H63.913L62.281 28.13H65.324ZM83.0409 24.798C83.0409 25.24 82.9956 25.6707 82.9049 26.09H75.6969C75.7309 27.5747 76.6036 28.317 78.3149 28.317C78.8363 28.317 79.3236 28.2377 79.7769 28.079C80.2303 27.909 80.6156 27.6767 80.9329 27.382L81.8169 28.861C81.3523 29.2803 80.7913 29.5977 80.1339 29.813C79.4879 30.017 78.8079 30.119 78.0939 30.119C77.1873 30.119 76.3939 29.9547 75.7139 29.626C75.0453 29.2973 74.5296 28.8327 74.1669 28.232C73.8043 27.62 73.6229 26.9173 73.6229 26.124C73.6229 25.1153 73.8439 24.2087 74.2859 23.404C74.7393 22.588 75.3626 21.9533 76.1559 21.5C76.9606 21.0467 77.8616 20.82 78.8589 20.82C80.1283 20.82 81.1426 21.177 81.9019 21.891C82.6613 22.5937 83.0409 23.5627 83.0409 24.798ZM78.7569 22.52C78.0429 22.52 77.4309 22.7127 76.9209 23.098C76.4223 23.4833 76.0766 24.0103 75.8839 24.679H81.0859C81.0973 23.999 80.8876 23.472 80.4569 23.098C80.0376 22.7127 79.4709 22.52 78.7569 22.52ZM94.7393 20.922L92.9373 30H90.9143L91.1013 29.065C90.308 29.7677 89.322 30.119 88.1433 30.119C87.3953 30.119 86.7153 29.9603 86.1033 29.643C85.5026 29.3257 85.0266 28.8667 84.6753 28.266C84.324 27.654 84.1483 26.94 84.1483 26.124C84.1483 25.1153 84.3693 24.2087 84.8113 23.404C85.2646 22.588 85.8766 21.9533 86.6473 21.5C87.4293 21.0467 88.302 20.82 89.2653 20.82C90.716 20.82 91.7473 21.3017 92.3593 22.265L92.6143 20.922H94.7393ZM88.6873 28.3C89.288 28.3 89.8206 28.1583 90.2853 27.875C90.7613 27.5803 91.1353 27.178 91.4073 26.668C91.6793 26.1467 91.8153 25.5573 91.8153 24.9C91.8153 24.186 91.6056 23.6307 91.1863 23.234C90.767 22.826 90.1776 22.622 89.4183 22.622C88.8176 22.622 88.2793 22.7693 87.8033 23.064C87.3386 23.3473 86.9703 23.7497 86.6983 24.271C86.4263 24.781 86.2903 25.3647 86.2903 26.022C86.2903 26.736 86.5 27.297 86.9193 27.705C87.3386 28.1017 87.928 28.3 88.6873 28.3ZM98.2336 17.386H100.359L97.8426 30H95.7176L98.2336 17.386Z" fill="#095CA8"/>
<path d="M130.444 35.7V42H129.274V39.3H126.016V42H124.846V35.7H126.016V38.301H129.274V35.7H130.444ZM134.841 42.09C133.971 42.09 133.293 41.847 132.807 41.361C132.321 40.869 132.078 40.167 132.078 39.255V35.7H133.248V39.21C133.248 40.446 133.782 41.064 134.85 41.064C135.912 41.064 136.443 40.446 136.443 39.21V35.7H137.595V39.255C137.595 40.167 137.352 40.869 136.866 41.361C136.386 41.847 135.711 42.09 134.841 42.09ZM143.698 38.724C144.046 38.838 144.322 39.03 144.526 39.3C144.73 39.564 144.832 39.894 144.832 40.29C144.832 40.836 144.622 41.259 144.202 41.559C143.782 41.853 143.17 42 142.366 42H139.234V35.7H142.186C142.93 35.7 143.503 35.847 143.905 36.141C144.307 36.429 144.508 36.828 144.508 37.338C144.508 37.65 144.436 37.926 144.292 38.166C144.148 38.406 143.95 38.592 143.698 38.724ZM140.404 36.618V38.355H142.06C142.468 38.355 142.78 38.283 142.996 38.139C143.218 37.989 143.329 37.773 143.329 37.491C143.329 37.203 143.218 36.987 142.996 36.843C142.78 36.693 142.468 36.618 142.06 36.618H140.404ZM142.294 41.082C143.2 41.082 143.653 40.779 143.653 40.173C143.653 39.567 143.2 39.264 142.294 39.264H140.404V41.082H142.294Z" fill="#095CA8"/>
<g filter="url(#filter1_d_206_33)">
<path d="M15.5355 8.27379L21.5403 8.72767C26.7421 8.72767 29.7096 10.962 30.2682 14.8372L30.6871 14.3135L35.5747 8.204L39.6943 14.8372L40.5671 16.2686C40.5671 16.0591 40.5671 15.8496 40.5671 15.6402C40.5671 6.3886 33.7593 0.628199 22.6226 0.628199L7.15674 0.0695801L15.5355 8.27379Z" fill="white"/>
<path d="M35.6425 4.81804C38.668 7.35707 40.3464 11.0219 40.3669 15.5561L39.8651 14.7331L39.8642 14.7317L35.7446 8.09848L35.5953 7.85809L35.4186 8.07906L30.5309 14.1886L30.3904 14.3643C30.039 12.5868 29.1583 11.1629 27.7616 10.1664C26.2566 9.0927 24.1716 8.52876 21.5479 8.52767L15.6233 8.07985L7.66577 0.288097L22.6153 0.828068L22.6153 0.828199H22.6226C28.1584 0.828199 32.5943 2.2599 35.6425 4.81804Z" stroke="#095CA8" stroke-width="0.4"/>
</g>
<path d="M40.6021 15.6055L39.7293 14.1741L35.6098 7.54089L30.7221 13.6504L30.3032 14.1741L25.8345 19.7599L29.7446 20.0043C28.2783 24.5777 24.4381 27.6848 18.6078 27.6848H11.7652L15.6404 8.06456L7.15686 0L0 35.7145H18.2936C29.3606 35.7145 37.6346 29.9541 39.9737 20.5629L43.8489 20.8073L40.6021 15.6055Z" fill="#095CA8"/>
<defs>
<filter id="filter0_d_206_33" x="94.1189" y="18.729" width="54.9659" height="21.4241" filterUnits="userSpaceOnUse" color-interpolation-filters="sRGB">
<feFlood flood-opacity="0" result="BackgroundImageFix"/>
<feColorMatrix in="SourceAlpha" type="matrix" values="0 0 0 0 0 0 0 0 0 0 0 0 0 0 0 0 0 0 127 0" result="hardAlpha"/>
<feOffset dy="5"/>
<feGaussianBlur stdDeviation="2.5"/>
<feComposite in2="hardAlpha" operator="out"/>
<feColorMatrix type="matrix" values="0 0 0 0 0 0 0 0 0 0 0 0 0 0 0 0 0 0 0.25 0"/>
<feBlend mode="normal" in2="BackgroundImageFix" result="effect1_dropShadow_206_33"/>
<feBlend mode="normal" in="SourceGraphic" in2="effect1_dropShadow_206_33" result="shape"/>
</filter>
<filter id="filter1_d_206_33" x="2.15674" y="0.0695801" width="43.4104" height="26.199" filterUnits="userSpaceOnUse" color-interpolation-filters="sRGB">
<feFlood flood-opacity="0" result="BackgroundImageFix"/>
<feColorMatrix in="SourceAlpha" type="matrix" values="0 0 0 0 0 0 0 0 0 0 0 0 0 0 0 0 0 0 127 0" result="hardAlpha"/>
<feOffset dy="5"/>
<feGaussianBlur stdDeviation="2.5"/>
<feComposite in2="hardAlpha" operator="out"/>
<feColorMatrix type="matrix" values="0 0 0 0 0 0 0 0 0 0 0 0 0 0 0 0 0 0 0.25 0"/>
<feBlend mode="normal" in2="BackgroundImageFix" result="effect1_dropShadow_206_33"/>
<feBlend mode="normal" in="SourceGraphic" in2="effect1_dropShadow_206_33" result="shape"/>
</filter>
</defs>
</svg>
