<svg width="152" height="37" viewBox="0 0 152 37" fill="none" xmlns="http://www.w3.org/2000/svg">
<g filter="url(#filter0_d_206_33)">
<path d="M114.736 14.633C115.711 14.633 116.493 14.905 117.082 15.449C117.671 15.993 117.966 16.7637 117.966 17.761C117.966 18.135 117.926 18.5147 117.847 18.9L116.844 24H113.614L114.566 19.24C114.611 19.0247 114.634 18.8093 114.634 18.594C114.634 18.186 114.532 17.88 114.328 17.676C114.135 17.472 113.852 17.37 113.478 17.37C112.447 17.37 111.795 18.033 111.523 19.359L110.588 24H107.358L108.327 19.24C108.372 19.0473 108.395 18.8377 108.395 18.611C108.395 18.203 108.293 17.897 108.089 17.693C107.896 17.4777 107.613 17.37 107.239 17.37C106.196 17.37 105.539 18.0443 105.267 19.393L104.349 24H101.119L102.955 14.786H106.015L105.828 15.721C106.587 14.9957 107.505 14.633 108.582 14.633C109.194 14.633 109.744 14.7633 110.231 15.024C110.718 15.2733 111.092 15.6417 111.353 16.129C111.784 15.6417 112.282 15.2733 112.849 15.024C113.427 14.7633 114.056 14.633 114.736 14.633ZM130.592 14.786L128.756 24H125.696L125.883 23.133C125.147 23.813 124.257 24.153 123.214 24.153C122.534 24.153 121.894 23.9887 121.293 23.66C120.704 23.32 120.228 22.8327 119.865 22.198C119.503 21.5633 119.321 20.8153 119.321 19.954C119.321 18.9567 119.542 18.0557 119.984 17.251C120.438 16.435 121.044 15.7947 121.803 15.33C122.574 14.8653 123.413 14.633 124.319 14.633C125.657 14.633 126.597 15.0523 127.141 15.891L127.362 14.786H130.592ZM124.336 21.552C124.982 21.552 125.509 21.314 125.917 20.838C126.325 20.362 126.529 19.7443 126.529 18.985C126.529 18.441 126.371 18.0103 126.053 17.693C125.747 17.3757 125.322 17.217 124.778 17.217C124.132 17.217 123.605 17.455 123.197 17.931C122.789 18.407 122.585 19.0303 122.585 19.801C122.585 20.345 122.738 20.7757 123.044 21.093C123.362 21.399 123.792 21.552 124.336 21.552ZM135.528 15.806C136.298 15.024 137.409 14.633 138.86 14.633L138.299 17.54C138.015 17.506 137.772 17.489 137.568 17.489C136.842 17.489 136.259 17.6647 135.817 18.016C135.386 18.356 135.097 18.9 134.95 19.648L134.066 24H130.836L132.672 14.786H135.732L135.528 15.806ZM142.906 20.566C142.883 20.7247 142.872 20.8267 142.872 20.872C142.872 21.3933 143.155 21.654 143.722 21.654C144.028 21.654 144.351 21.5633 144.691 21.382L145.099 23.609C144.464 23.9717 143.665 24.153 142.702 24.153C141.75 24.153 140.99 23.915 140.424 23.439C139.868 22.963 139.591 22.3 139.591 21.45C139.591 21.1213 139.619 20.8323 139.676 20.583L140.288 17.54H138.928L139.421 15.126H140.764L141.24 12.729H144.47L143.994 15.126H146.085L145.609 17.54H143.518L142.906 20.566Z" fill="white"/>
<path d="M117.082 15.449L117.218 15.302L117.218 15.302L117.082 15.449ZM117.847 18.9L117.651 18.8597L117.651 18.8614L117.847 18.9ZM116.844 24V24.2H117.008L117.04 24.0386L116.844 24ZM113.614 24L113.418 23.9608L113.37 24.2H113.614V24ZM114.566 19.24L114.37 19.1988L114.37 19.2008L114.566 19.24ZM114.328 17.676L114.182 17.8134L114.186 17.8174L114.328 17.676ZM111.523 19.359L111.327 19.3188L111.327 19.3195L111.523 19.359ZM110.588 24V24.2H110.752L110.784 24.0395L110.588 24ZM107.358 24L107.162 23.9601L107.113 24.2H107.358V24ZM108.327 19.24L108.132 19.1942L108.131 19.2001L108.327 19.24ZM108.089 17.693L107.94 17.8266L107.947 17.8344L108.089 17.693ZM105.267 19.393L105.071 19.3535L105.071 19.3539L105.267 19.393ZM104.349 24V24.2H104.513L104.545 24.0391L104.349 24ZM101.119 24L100.923 23.9609L100.875 24.2H101.119V24ZM102.955 14.786V14.586H102.791L102.759 14.7469L102.955 14.786ZM106.015 14.786L106.211 14.8252L106.259 14.586H106.015V14.786ZM105.828 15.721L105.632 15.6818L105.507 16.3037L105.966 15.8656L105.828 15.721ZM110.231 15.024L110.137 15.2004L110.14 15.202L110.231 15.024ZM111.353 16.129L111.177 16.2233L111.312 16.477L111.503 16.2614L111.353 16.129ZM112.849 15.024L112.929 15.2071L112.931 15.2063L112.849 15.024ZM114.736 14.833C115.672 14.833 116.401 15.0931 116.946 15.596L117.218 15.302C116.584 14.7169 115.749 14.433 114.736 14.433V14.833ZM116.946 15.596C117.485 16.0932 117.766 16.8049 117.766 17.761H118.166C118.166 16.7224 117.857 15.8928 117.218 15.302L116.946 15.596ZM117.766 17.761C117.766 18.1208 117.728 18.4869 117.651 18.8597L118.043 18.9403C118.125 18.5424 118.166 18.1492 118.166 17.761H117.766ZM117.651 18.8614L116.648 23.9614L117.04 24.0386L118.043 18.9386L117.651 18.8614ZM116.844 23.8H113.614V24.2H116.844V23.8ZM113.81 24.0392L114.762 19.2792L114.37 19.2008L113.418 23.9608L113.81 24.0392ZM114.762 19.2812C114.81 19.0526 114.834 18.8235 114.834 18.594H114.434C114.434 18.7952 114.413 18.9967 114.37 19.1988L114.762 19.2812ZM114.834 18.594C114.834 18.1552 114.724 17.7893 114.469 17.5346L114.186 17.8174C114.34 17.9707 114.434 18.2168 114.434 18.594H114.834ZM114.473 17.5387C114.231 17.2826 113.888 17.17 113.478 17.17V17.57C113.816 17.57 114.039 17.6614 114.182 17.8133L114.473 17.5387ZM113.478 17.17C112.915 17.17 112.441 17.3529 112.073 17.7271C111.71 18.0959 111.467 18.6343 111.327 19.3188L111.719 19.3992C111.85 18.7577 112.069 18.3016 112.358 18.0074C112.642 17.7186 113.009 17.57 113.478 17.57V17.17ZM111.327 19.3195L110.392 23.9605L110.784 24.0395L111.719 19.3985L111.327 19.3195ZM110.588 23.8H107.358V24.2H110.588V23.8ZM107.554 24.0399L108.523 19.2799L108.131 19.2001L107.162 23.9601L107.554 24.0399ZM108.522 19.2858C108.571 19.0761 108.595 18.8509 108.595 18.611H108.195C108.195 18.8244 108.174 19.0185 108.132 19.1942L108.522 19.2858ZM108.595 18.611C108.595 18.1722 108.485 17.8063 108.23 17.5516L107.947 17.8344C108.101 17.9877 108.195 18.2338 108.195 18.611H108.595ZM108.238 17.5596C107.997 17.2902 107.652 17.17 107.239 17.17V17.57C107.574 17.57 107.796 17.6651 107.94 17.8264L108.238 17.5596ZM107.239 17.17C106.67 17.17 106.191 17.356 105.821 17.7361C105.455 18.1108 105.211 18.6578 105.071 19.3535L105.463 19.4325C105.595 18.7795 105.815 18.315 106.107 18.0154C106.394 17.7211 106.765 17.57 107.239 17.57V17.17ZM105.071 19.3539L104.153 23.9609L104.545 24.0391L105.463 19.4321L105.071 19.3539ZM104.349 23.8H101.119V24.2H104.349V23.8ZM101.315 24.0391L103.151 14.8251L102.759 14.7469L100.923 23.9609L101.315 24.0391ZM102.955 14.986H106.015V14.586H102.955V14.986ZM105.819 14.7468L105.632 15.6818L106.024 15.7602L106.211 14.8252L105.819 14.7468ZM105.966 15.8656C106.687 15.1768 107.555 14.833 108.582 14.833V14.433C107.455 14.433 106.487 14.8145 105.69 15.5764L105.966 15.8656ZM108.582 14.833C109.165 14.833 109.681 14.9568 110.137 15.2004L110.325 14.8476C109.806 14.5698 109.223 14.433 108.582 14.433V14.833ZM110.14 15.202C110.59 15.4326 110.935 15.7716 111.177 16.2233L111.529 16.0347C111.25 15.5118 110.846 15.114 110.322 14.846L110.14 15.202ZM111.503 16.2614C111.915 15.7947 112.391 15.4441 112.929 15.2071L112.768 14.8409C112.174 15.1025 111.652 15.4887 111.203 15.9966L111.503 16.2614ZM112.931 15.2063C113.481 14.9581 114.082 14.833 114.736 14.833V14.433C114.03 14.433 113.372 14.5685 112.767 14.8417L112.931 15.2063ZM130.592 14.786L130.789 14.8251L130.836 14.586H130.592V14.786ZM128.756 24V24.2H128.92L128.953 24.0391L128.756 24ZM125.696 24L125.501 23.9578L125.449 24.2H125.696V24ZM125.883 23.133L126.079 23.1752L126.212 22.5573L125.748 22.986L125.883 23.133ZM121.293 23.66L121.193 23.8333L121.197 23.8355L121.293 23.66ZM119.865 22.198L120.039 22.0988L120.039 22.0988L119.865 22.198ZM119.984 17.251L119.81 17.1539L119.809 17.1547L119.984 17.251ZM121.803 15.33L121.7 15.1587L121.699 15.1594L121.803 15.33ZM127.141 15.891L126.974 15.9998L127.241 16.4122L127.337 15.9302L127.141 15.891ZM127.362 14.786V14.586H127.198L127.166 14.7468L127.362 14.786ZM125.917 20.838L126.069 20.9682L126.069 20.9682L125.917 20.838ZM126.053 17.693L125.909 17.8318L125.912 17.8344L126.053 17.693ZM123.197 17.931L123.349 18.0612L123.349 18.0612L123.197 17.931ZM123.044 21.093L122.9 21.2319L122.906 21.237L123.044 21.093ZM130.396 14.7469L128.56 23.9609L128.953 24.0391L130.789 14.8251L130.396 14.7469ZM128.756 23.8H125.696V24.2H128.756V23.8ZM125.892 24.0422L126.079 23.1752L125.688 23.0908L125.501 23.9578L125.892 24.0422ZM125.748 22.986C125.05 23.6305 124.209 23.953 123.214 23.953V24.353C124.305 24.353 125.244 23.9955 126.019 23.28L125.748 22.986ZM123.214 23.953C122.568 23.953 121.961 23.7972 121.389 23.4845L121.197 23.8355C121.827 24.1801 122.501 24.353 123.214 24.353V23.953ZM121.393 23.4868C120.837 23.1658 120.385 22.705 120.039 22.0988L119.692 22.2972C120.071 22.9603 120.571 23.4742 121.193 23.8332L121.393 23.4868ZM120.039 22.0988C119.696 21.4993 119.521 20.7868 119.521 19.954H119.121C119.121 20.8439 119.309 21.6273 119.692 22.2972L120.039 22.0988ZM119.521 19.954C119.521 18.9873 119.735 18.1199 120.16 17.3473L119.809 17.1547C119.349 17.9914 119.121 18.926 119.121 19.954H119.521ZM120.159 17.3481C120.597 16.5608 121.179 15.9464 121.908 15.5006L121.699 15.1594C120.909 15.643 120.279 16.3092 119.81 17.1539L120.159 17.3481ZM121.907 15.5013C122.646 15.0556 123.449 14.833 124.319 14.833V14.433C123.377 14.433 122.502 14.6751 121.7 15.1587L121.907 15.5013ZM124.319 14.833C125.614 14.833 126.478 15.2365 126.974 15.9998L127.309 15.7822C126.716 14.8682 125.699 14.433 124.319 14.433V14.833ZM127.337 15.9302L127.558 14.8252L127.166 14.7468L126.945 15.8518L127.337 15.9302ZM127.362 14.986H130.592V14.586H127.362V14.986ZM124.336 21.752C125.039 21.752 125.622 21.49 126.069 20.9682L125.766 20.7078C125.397 21.138 124.926 21.352 124.336 21.352V21.752ZM126.069 20.9682C126.515 20.4487 126.729 19.7816 126.729 18.985H126.329C126.329 19.7071 126.136 20.2753 125.766 20.7078L126.069 20.9682ZM126.729 18.985C126.729 18.4 126.557 17.9141 126.195 17.5516L125.912 17.8344C126.184 18.1065 126.329 18.482 126.329 18.985H126.729ZM126.197 17.5542C125.845 17.189 125.363 17.017 124.778 17.017V17.417C125.282 17.417 125.65 17.5624 125.909 17.8318L126.197 17.5542ZM124.778 17.017C124.076 17.017 123.493 17.279 123.046 17.8008L123.349 18.0612C123.718 17.631 124.189 17.417 124.778 17.417V17.017ZM123.046 17.8008C122.6 18.3209 122.385 18.994 122.385 19.801H122.785C122.785 19.0667 122.979 18.4931 123.349 18.0612L123.046 17.8008ZM122.385 19.801C122.385 20.384 122.55 20.8689 122.9 21.2318L123.188 20.9542C122.926 20.6824 122.785 20.306 122.785 19.801H122.385ZM122.906 21.237C123.268 21.5869 123.753 21.752 124.336 21.752V21.352C123.831 21.352 123.455 21.2111 123.183 20.949L122.906 21.237ZM135.528 15.806L135.332 15.7668L135.2 16.4231L135.67 15.9464L135.528 15.806ZM138.86 14.633L139.056 14.6709L139.102 14.433H138.86V14.633ZM138.299 17.54L138.275 17.7386L138.46 17.7608L138.495 17.5779L138.299 17.54ZM135.817 18.016L135.941 18.173L135.941 18.1726L135.817 18.016ZM134.95 19.648L135.146 19.6878L135.146 19.6867L134.95 19.648ZM134.066 24V24.2H134.229L134.262 24.0398L134.066 24ZM130.836 24L130.64 23.9609L130.592 24.2H130.836V24ZM132.672 14.786V14.586H132.508L132.476 14.7469L132.672 14.786ZM135.732 14.786L135.928 14.8252L135.976 14.586H135.732V14.786ZM135.67 15.9464C136.392 15.2136 137.445 14.833 138.86 14.833V14.433C137.373 14.433 136.204 14.8344 135.385 15.6656L135.67 15.9464ZM138.663 14.5951L138.102 17.5021L138.495 17.5779L139.056 14.6709L138.663 14.5951ZM138.323 17.3414C138.034 17.3068 137.782 17.289 137.568 17.289V17.689C137.761 17.689 137.997 17.7052 138.275 17.7386L138.323 17.3414ZM137.568 17.289C136.81 17.289 136.179 17.4728 135.692 17.8594L135.941 18.1726C136.339 17.8565 136.875 17.689 137.568 17.689V17.289ZM135.693 17.859C135.212 18.2383 134.906 18.8327 134.753 19.6093L135.146 19.6867C135.288 18.9673 135.56 18.4737 135.941 18.173L135.693 17.859ZM134.754 19.6082L133.87 23.9602L134.262 24.0398L135.146 19.6878L134.754 19.6082ZM134.066 23.8H130.836V24.2H134.066V23.8ZM131.032 24.0391L132.868 14.8251L132.476 14.7469L130.64 23.9609L131.032 24.0391ZM132.672 14.986H135.732V14.586H132.672V14.986ZM135.536 14.7468L135.332 15.7668L135.724 15.8452L135.928 14.8252L135.536 14.7468ZM142.906 20.566L142.709 20.5263L142.708 20.5377L142.906 20.566ZM144.691 21.382L144.888 21.346L144.838 21.0767L144.597 21.2055L144.691 21.382ZM145.099 23.609L145.198 23.7826L145.321 23.7123L145.296 23.573L145.099 23.609ZM140.424 23.439L140.294 23.5909L140.295 23.5921L140.424 23.439ZM139.676 20.583L139.871 20.6273L139.872 20.6224L139.676 20.583ZM140.288 17.54L140.484 17.5794L140.532 17.34H140.288V17.54ZM138.928 17.54L138.732 17.5L138.683 17.74H138.928V17.54ZM139.421 15.126V14.926H139.258L139.225 15.086L139.421 15.126ZM140.764 15.126V15.326H140.928L140.96 15.165L140.764 15.126ZM141.24 12.729V12.529H141.076L141.044 12.69L141.24 12.729ZM144.47 12.729L144.666 12.768L144.713 12.529H144.47V12.729ZM143.994 15.126L143.798 15.087L143.75 15.326H143.994V15.126ZM146.085 15.126L146.281 15.1647L146.328 14.926H146.085V15.126ZM145.609 17.54V17.74H145.773L145.805 17.5787L145.609 17.54ZM143.518 17.54V17.34H143.354L143.322 17.5004L143.518 17.54ZM142.708 20.5377C142.686 20.6923 142.672 20.8096 142.672 20.872H143.072C143.072 20.8438 143.081 20.757 143.104 20.5943L142.708 20.5377ZM142.672 20.872C142.672 21.168 142.753 21.4255 142.949 21.6057C143.142 21.783 143.412 21.854 143.722 21.854V21.454C143.465 21.454 143.31 21.3947 143.22 21.3113C143.132 21.2309 143.072 21.0974 143.072 20.872H142.672ZM143.722 21.854C144.068 21.854 144.423 21.7513 144.785 21.5585L144.597 21.2055C144.278 21.3753 143.988 21.454 143.722 21.454V21.854ZM144.494 21.418L144.902 23.645L145.296 23.573L144.888 21.346L144.494 21.418ZM145 23.4354C144.403 23.7761 143.641 23.953 142.702 23.953V24.353C143.689 24.353 144.525 24.1672 145.198 23.7826L145 23.4354ZM142.702 23.953C141.783 23.953 141.074 23.7238 140.552 23.2859L140.295 23.5921C140.907 24.1062 141.716 24.353 142.702 24.353V23.953ZM140.554 23.2871C140.05 22.8555 139.791 22.2521 139.791 21.45H139.391C139.391 22.3479 139.687 23.0705 140.294 23.5909L140.554 23.2871ZM139.791 21.45C139.791 21.1323 139.818 20.8587 139.871 20.6273L139.481 20.5387C139.42 20.806 139.391 21.1104 139.391 21.45H139.791ZM139.872 20.6224L140.484 17.5794L140.092 17.5006L139.48 20.5436L139.872 20.6224ZM140.288 17.34H138.928V17.74H140.288V17.34ZM139.124 17.58L139.617 15.166L139.225 15.086L138.732 17.5L139.124 17.58ZM139.421 15.326H140.764V14.926H139.421V15.326ZM140.96 15.165L141.436 12.768L141.044 12.69L140.568 15.087L140.96 15.165ZM141.24 12.929H144.47V12.529H141.24V12.929ZM144.274 12.69L143.798 15.087L144.19 15.165L144.666 12.768L144.274 12.69ZM143.994 15.326H146.085V14.926H143.994V15.326ZM145.889 15.0873L145.413 17.5013L145.805 17.5787L146.281 15.1647L145.889 15.0873ZM145.609 17.34H143.518V17.74H145.609V17.34ZM143.322 17.5004L142.71 20.5264L143.102 20.6056L143.714 17.5796L143.322 17.5004Z" fill="#095CA8"/>
</g>
<path d="M62.077 12.1H66.888C68.078 12.1 69.1093 12.304 69.982 12.712C70.8547 13.1087 71.5177 13.6753 71.971 14.412C72.4357 15.1487 72.668 16.0157 72.668 17.013C72.668 18.407 72.3563 19.631 71.733 20.685C71.121 21.739 70.254 22.555 69.132 23.133C68.01 23.711 66.718 24 65.256 24H59.697L62.077 12.1ZM65.324 22.13C66.3667 22.13 67.2733 21.9147 68.044 21.484C68.8147 21.0533 69.404 20.464 69.812 19.716C70.2313 18.9567 70.441 18.101 70.441 17.149C70.441 16.1517 70.118 15.3753 69.472 14.82C68.826 14.2533 67.8853 13.97 66.65 13.97H63.913L62.281 22.13H65.324ZM83.0409 18.798C83.0409 19.24 82.9956 19.6707 82.9049 20.09H75.6969C75.7309 21.5747 76.6036 22.317 78.3149 22.317C78.8363 22.317 79.3236 22.2377 79.7769 22.079C80.2303 21.909 80.6156 21.6767 80.9329 21.382L81.8169 22.861C81.3523 23.2803 80.7913 23.5977 80.1339 23.813C79.4879 24.017 78.8079 24.119 78.0939 24.119C77.1873 24.119 76.3939 23.9547 75.7139 23.626C75.0453 23.2973 74.5296 22.8327 74.1669 22.232C73.8043 21.62 73.6229 20.9173 73.6229 20.124C73.6229 19.1153 73.8439 18.2087 74.2859 17.404C74.7393 16.588 75.3626 15.9533 76.1559 15.5C76.9606 15.0467 77.8616 14.82 78.8589 14.82C80.1283 14.82 81.1426 15.177 81.9019 15.891C82.6613 16.5937 83.0409 17.5627 83.0409 18.798ZM78.7569 16.52C78.0429 16.52 77.4309 16.7127 76.9209 17.098C76.4223 17.4833 76.0766 18.0103 75.8839 18.679H81.0859C81.0973 17.999 80.8876 17.472 80.4569 17.098C80.0376 16.7127 79.4709 16.52 78.7569 16.52ZM94.7393 14.922L92.9373 24H90.9143L91.1013 23.065C90.308 23.7677 89.322 24.119 88.1433 24.119C87.3953 24.119 86.7153 23.9603 86.1033 23.643C85.5026 23.3257 85.0266 22.8667 84.6753 22.266C84.324 21.654 84.1483 20.94 84.1483 20.124C84.1483 19.1153 84.3693 18.2087 84.8113 17.404C85.2646 16.588 85.8766 15.9533 86.6473 15.5C87.4293 15.0467 88.302 14.82 89.2653 14.82C90.716 14.82 91.7473 15.3017 92.3593 16.265L92.6143 14.922H94.7393ZM88.6873 22.3C89.288 22.3 89.8206 22.1583 90.2853 21.875C90.7613 21.5803 91.1353 21.178 91.4073 20.668C91.6793 20.1467 91.8153 19.5573 91.8153 18.9C91.8153 18.186 91.6056 17.6307 91.1863 17.234C90.767 16.826 90.1776 16.622 89.4183 16.622C88.8176 16.622 88.2793 16.7693 87.8033 17.064C87.3386 17.3473 86.9703 17.7497 86.6983 18.271C86.4263 18.781 86.2903 19.3647 86.2903 20.022C86.2903 20.736 86.5 21.297 86.9193 21.705C87.3386 22.1017 87.928 22.3 88.6873 22.3ZM98.2336 11.386H100.359L97.8426 24H95.7176L98.2336 11.386Z" fill="#095CA8"/>
<path d="M130.444 29.7V36H129.274V33.3H126.016V36H124.846V29.7H126.016V32.301H129.274V29.7H130.444ZM134.841 36.09C133.971 36.09 133.293 35.847 132.807 35.361C132.321 34.869 132.078 34.167 132.078 33.255V29.7H133.248V33.21C133.248 34.446 133.782 35.064 134.85 35.064C135.912 35.064 136.443 34.446 136.443 33.21V29.7H137.595V33.255C137.595 34.167 137.352 34.869 136.866 35.361C136.386 35.847 135.711 36.09 134.841 36.09ZM143.698 32.724C144.046 32.838 144.322 33.03 144.526 33.3C144.73 33.564 144.832 33.894 144.832 34.29C144.832 34.836 144.622 35.259 144.202 35.559C143.782 35.853 143.17 36 142.366 36H139.234V29.7H142.186C142.93 29.7 143.503 29.847 143.905 30.141C144.307 30.429 144.508 30.828 144.508 31.338C144.508 31.65 144.436 31.926 144.292 32.166C144.148 32.406 143.95 32.592 143.698 32.724ZM140.404 30.618V32.355H142.06C142.468 32.355 142.78 32.283 142.996 32.139C143.218 31.989 143.329 31.773 143.329 31.491C143.329 31.203 143.218 30.987 142.996 30.843C142.78 30.693 142.468 30.618 142.06 30.618H140.404ZM142.294 35.082C143.2 35.082 143.653 34.779 143.653 34.173C143.653 33.567 143.2 33.264 142.294 33.264H140.404V35.082H142.294Z" fill="#095CA8"/>
<g filter="url(#filter1_d_206_33)">
<path d="M15.5355 8.27379L21.5403 8.72767C26.7421 8.72767 29.7096 10.962 30.2682 14.8372L30.6871 14.3135L35.5747 8.204L39.6943 14.8372L40.5671 16.2686C40.5671 16.0591 40.5671 15.8496 40.5671 15.6402C40.5671 6.3886 33.7593 0.628199 22.6226 0.628199L7.15674 0.0695801L15.5355 8.27379Z" fill="white"/>
<path d="M35.6425 4.81804C38.668 7.35707 40.3464 11.0219 40.3669 15.5561L39.8651 14.7331L39.8642 14.7317L35.7446 8.09848L35.5953 7.85809L35.4186 8.07906L30.5309 14.1886L30.3904 14.3643C30.039 12.5868 29.1583 11.1629 27.7616 10.1664C26.2566 9.0927 24.1716 8.52876 21.5479 8.52767L15.6233 8.07985L7.66577 0.288097L22.6153 0.828068L22.6153 0.828199H22.6226C28.1584 0.828199 32.5943 2.2599 35.6425 4.81804Z" stroke="#095CA8" stroke-width="0.4"/>
</g>
<path d="M40.6021 15.6055L39.7293 14.1741L35.6098 7.54089L30.7221 13.6504L30.3032 14.1741L25.8345 19.7599L29.7446 20.0043C28.2783 24.5777 24.4381 27.6848 18.6078 27.6848H11.7652L15.6404 8.06456L7.15686 0L0 35.7145H18.2936C29.3606 35.7145 37.6346 29.9541 39.9737 20.5629L43.8489 20.8073L40.6021 15.6055Z" fill="#095CA8"/>
<defs>
<filter id="filter0_d_206_33" x="96.1189" y="12.729" width="54.9659" height="21.4241" filterUnits="userSpaceOnUse" color-interpolation-filters="sRGB">
<feFlood flood-opacity="0" result="BackgroundImageFix"/>
<feColorMatrix in="SourceAlpha" type="matrix" values="0 0 0 0 0 0 0 0 0 0 0 0 0 0 0 0 0 0 127 0" result="hardAlpha"/>
<feOffset dy="5"/>
<feGaussianBlur stdDeviation="2.5"/>
<feComposite in2="hardAlpha" operator="out"/>
<feColorMatrix type="matrix" values="0 0 0 0 0 0 0 0 0 0 0 0 0 0 0 0 0 0 0.25 0"/>
<feBlend mode="normal" in2="BackgroundImageFix" result="effect1_dropShadow_206_33"/>
<feBlend mode="normal" in="SourceGraphic" in2="effect1_dropShadow_206_33" result="shape"/>
</filter>
<filter id="filter1_d_206_33" x="2.15674" y="0.0695801" width="43.4104" height="26.199" filterUnits="userSpaceOnUse" color-interpolation-filters="sRGB">
<feFlood flood-opacity="0" result="BackgroundImageFix"/>
<feColorMatrix in="SourceAlpha" type="matrix" values="0 0 0 0 0 0 0 0 0 0 0 0 0 0 0 0 0 0 127 0" result="hardAlpha"/>
<feOffset dy="5"/>
<feGaussianBlur stdDeviation="2.5"/>
<feComposite in2="hardAlpha" operator="out"/>
<feColorMatrix type="matrix" values="0 0 0 0 0 0 0 0 0 0 0 0 0 0 0 0 0 0 0.25 0"/>
<feBlend mode="normal" in2="BackgroundImageFix" result="effect1_dropShadow_206_33"/>
<feBlend mode="normal" in="SourceGraphic" in2="effect1_dropShadow_206_33" result="shape"/>
</filter>
</defs>
</svg>
